<svg width="72" height="78" viewBox="0 0 72 78" fill="none" xmlns="http://www.w3.org/2000/svg">
<path d="M50 47.1661C50 55.1661 40 61.1661 40 67.1661H32C32 61.1661 22 55.1661 22 47.1661C22 39.4461 28.28 33.1661 36 33.1661C43.72 33.1661 50 39.4461 50 47.1661ZM40 71.1661H32V73.1661C32 75.3661 33.8 77.1661 36 77.1661C38.2 77.1661 40 75.3661 40 73.1661V71.1661ZM64 45.1661C64 50.7261 62.36 55.9261 59.52 60.2861C58.52 61.8461 58.76 63.9261 60.08 65.2461C61.84 67.0061 64.88 66.7661 66.24 64.6461C69.88 59.0461 72 52.3661 72 45.1661C72 35.7261 68.36 27.1261 62.4 20.6861C60.84 19.0061 58.2 18.9661 56.6 20.5661C55.08 22.0861 55.08 24.5261 56.52 26.1261C61.16 31.1261 64 37.8061 64 45.1661ZM50.6 11.7661L39.44 0.606138C38.16 -0.673862 36 0.206138 36 2.00614V9.16614C16.12 9.16614 0 25.2861 0 45.1661C0 52.3661 2.12 59.0461 5.76 64.6861C7.12 66.8061 10.16 67.0461 11.92 65.2861C13.24 63.9661 13.48 61.9261 12.48 60.3661C6.92 51.7661 5.92 39.9661 13 28.3661C17.8 20.5661 26.84 16.4061 36 17.1661V24.3261C36 26.1261 38.16 27.0061 39.4 25.7261L50.56 14.5661C51.36 13.8061 51.36 12.5261 50.6 11.7661Z" fill="#1D2D4C"/>
</svg>
