<svg width="37" height="30" viewBox="0 0 37 30" fill="none" xmlns="http://www.w3.org/2000/svg">
<path d="M28.3625 1.03153C28.3625 0.105993 29.4732 -0.346491 30.1108 0.311668L35.8491 6.04999C36.2604 6.46134 36.2604 7.09893 35.8491 7.51028L30.1108 13.2486C29.4732 13.8862 28.3625 13.4337 28.3625 12.5082V8.82659H22.1923C21.0611 8.82659 20.1355 7.90106 20.1355 6.76985C20.1355 5.63864 21.0611 4.7131 22.1923 4.7131H28.3625V1.03153ZM13.9653 4.7131C12.8341 4.7131 11.9086 5.63864 11.9086 6.76985C11.9086 7.90106 12.8341 8.82659 13.9653 8.82659C15.0965 8.82659 16.022 7.90106 16.022 6.76985C16.022 5.63864 15.0965 4.7131 13.9653 4.7131ZM5.73832 4.7131C4.60711 4.7131 3.68157 5.63864 3.68157 6.76985C3.68157 7.90106 4.60711 8.82659 5.73832 8.82659C6.86953 8.82659 7.79507 7.90106 7.79507 6.76985C7.79507 5.63864 6.86953 4.7131 5.73832 4.7131ZM7.79507 25.2806H13.9653C15.0965 25.2806 16.022 24.355 16.022 23.2238C16.022 22.0926 15.0965 21.1671 13.9653 21.1671H7.79507V17.4855C7.79507 16.56 6.68442 16.1075 6.04683 16.7656L0.308512 22.5039C-0.102837 22.9153 -0.102837 23.5529 0.308512 23.9642L6.04683 29.7026C6.68442 30.3401 7.79507 29.8877 7.79507 28.9621V25.2806ZM22.1923 25.2806C23.3235 25.2806 24.249 24.355 24.249 23.2238C24.249 22.0926 23.3235 21.1671 22.1923 21.1671C21.0611 21.1671 20.1355 22.0926 20.1355 23.2238C20.1355 24.355 21.0611 25.2806 22.1923 25.2806ZM30.4193 25.2806C31.5505 25.2806 32.476 24.355 32.476 23.2238C32.476 22.0926 31.5505 21.1671 30.4193 21.1671C29.2881 21.1671 28.3625 22.0926 28.3625 23.2238C28.3625 24.355 29.2881 25.2806 30.4193 25.2806Z" fill="black"/>
</svg>
