<svg width="30" height="30" viewBox="0 0 30 30" fill="none" xmlns="http://www.w3.org/2000/svg">
<path d="M30 21V3C30 1.35 28.65 0 27 0H9C7.35 0 6 1.35 6 3V21C6 22.65 7.35 24 9 24H27C28.65 24 30 22.65 30 21ZM14.1 15.795L16.545 19.065L20.415 14.235C20.715 13.86 21.285 13.86 21.585 14.235L26.025 19.785C26.415 20.28 26.07 21 25.44 21H10.5C9.885 21 9.525 20.295 9.9 19.8L12.9 15.795C13.2 15.405 13.8 15.405 14.1 15.795ZM0 7.5V27C0 28.65 1.35 30 3 30H22.5C23.325 30 24 29.325 24 28.5C24 27.675 23.325 27 22.5 27H4.5C3.675 27 3 26.325 3 25.5V7.5C3 6.675 2.325 6 1.5 6C0.675 6 0 6.675 0 7.5Z" fill="#1D2D4C"/>
</svg>
