<svg width="24" height="25" viewBox="0 0 24 25" fill="none" xmlns="http://www.w3.org/2000/svg">
<path d="M24 17.5V2.5C24 1.125 22.92 0 21.6 0H7.2C5.88 0 4.8 1.125 4.8 2.5V17.5C4.8 18.875 5.88 20 7.2 20H21.6C22.92 20 24 18.875 24 17.5ZM11.28 13.1625L13.236 15.8875L16.332 11.8625C16.572 11.55 17.028 11.55 17.268 11.8625L20.82 16.4875C21.132 16.9 20.856 17.5 20.352 17.5H8.4C7.908 17.5 7.62 16.9125 7.92 16.5L10.32 13.1625C10.56 12.8375 11.04 12.8375 11.28 13.1625ZM0 6.25V22.5C0 23.875 1.08 25 2.4 25H18C18.66 25 19.2 24.4375 19.2 23.75C19.2 23.0625 18.66 22.5 18 22.5H3.6C2.94 22.5 2.4 21.9375 2.4 21.25V6.25C2.4 5.5625 1.86 5 1.2 5C0.54 5 0 5.5625 0 6.25Z" fill="#1D2D4C"/>
</svg>
