<svg width="30" height="30" viewBox="0 0 30 30" fill="none" xmlns="http://www.w3.org/2000/svg">
<path d="M18.6167 0H3.33333C1.5 0 0 1.5 0 3.33333V26.6667C0 28.5 1.5 30 3.33333 30H26.6667C28.5 30 30 28.5 30 26.6667V11.3833C30 10.5 29.65 9.65 29.0167 9.03333L20.9667 0.983333C20.35 0.35 19.5 0 18.6167 0ZM8.33333 20H21.6667C22.5833 20 23.3333 20.75 23.3333 21.6667C23.3333 22.5833 22.5833 23.3333 21.6667 23.3333H8.33333C7.41667 23.3333 6.66667 22.5833 6.66667 21.6667C6.66667 20.75 7.41667 20 8.33333 20ZM8.33333 13.3333H21.6667C22.5833 13.3333 23.3333 14.0833 23.3333 15C23.3333 15.9167 22.5833 16.6667 21.6667 16.6667H8.33333C7.41667 16.6667 6.66667 15.9167 6.66667 15C6.66667 14.0833 7.41667 13.3333 8.33333 13.3333ZM8.33333 6.66667H16.6667C17.5833 6.66667 18.3333 7.41667 18.3333 8.33333C18.3333 9.25 17.5833 10 16.6667 10H8.33333C7.41667 10 6.66667 9.25 6.66667 8.33333C6.66667 7.41667 7.41667 6.66667 8.33333 6.66667Z" fill="#1D2D4C"/>
</svg>
