<svg width="30" height="22" viewBox="0 0 30 22" fill="none" xmlns="http://www.w3.org/2000/svg">
<path d="M28.75 18.75H27.5V2.5C27.5 1.125 26.375 0 25 0H5C3.625 0 2.5 1.125 2.5 2.5V18.75H1.25C0.5625 18.75 0 19.3125 0 20C0 20.6875 0.5625 21.25 1.25 21.25H28.75C29.4375 21.25 30 20.6875 30 20C30 19.3125 29.4375 18.75 28.75 18.75ZM16.875 18.75H13.125C12.775 18.75 12.5 18.475 12.5 18.125C12.5 17.775 12.775 17.5 13.125 17.5H16.875C17.225 17.5 17.5 17.775 17.5 18.125C17.5 18.475 17.225 18.75 16.875 18.75ZM25 15H5V3.75C5 3.0625 5.5625 2.5 6.25 2.5H23.75C24.4375 2.5 25 3.0625 25 3.75V15Z" fill="black"/>
</svg>
