<svg width="25" height="25" viewBox="0 0 25 25" fill="none" xmlns="http://www.w3.org/2000/svg">
<path d="M15.5139 0H2.77778C1.25 0 0 1.25 0 2.77778V22.2222C0 23.75 1.25 25 2.77778 25H22.2222C23.75 25 25 23.75 25 22.2222V9.48611C25 8.75 24.7083 8.04167 24.1806 7.52778L17.4722 0.819444C16.9583 0.291667 16.25 0 15.5139 0ZM6.94444 16.6667H18.0556C18.8194 16.6667 19.4444 17.2917 19.4444 18.0556C19.4444 18.8194 18.8194 19.4444 18.0556 19.4444H6.94444C6.18056 19.4444 5.55556 18.8194 5.55556 18.0556C5.55556 17.2917 6.18056 16.6667 6.94444 16.6667ZM6.94444 11.1111H18.0556C18.8194 11.1111 19.4444 11.7361 19.4444 12.5C19.4444 13.2639 18.8194 13.8889 18.0556 13.8889H6.94444C6.18056 13.8889 5.55556 13.2639 5.55556 12.5C5.55556 11.7361 6.18056 11.1111 6.94444 11.1111ZM6.94444 5.55556H13.8889C14.6528 5.55556 15.2778 6.18056 15.2778 6.94444C15.2778 7.70833 14.6528 8.33333 13.8889 8.33333H6.94444C6.18056 8.33333 5.55556 7.70833 5.55556 6.94444C5.55556 6.18056 6.18056 5.55556 6.94444 5.55556Z" fill="#1D2D4C"/>
</svg>
